<svg xmlns="http://www.w3.org/2000/svg" viewBox="0 0 729.98 191.51"><defs><style>.cls-1{fill:#00457c;}</style></defs><title>ICL_logo_3</title><g id="Layer_2" data-name="Layer 2"><g id="Layer_1-2" data-name="Layer 1"><path class="cls-1" d="M0,80.58V3.84H15.05V80.58Z"/><path class="cls-1" d="M37.13,32.23h.21C41,27.3,47.9,24.45,54.2,24.45c6.72,0,12.48,2.74,15.69,7.78,4.48-4.38,11.42-7.67,17.72-7.78,12-.11,18.35,7.46,18.56,20.06v36H92V47.14c0-6.35-2.13-12.93-9.17-12.93-6.83,0-11.09,4.16-11.09,13.69V80.58H57.51V47.14c0-7.67-3.31-12.93-9.39-12.93-6.73,0-10.88,4.71-10.88,14V80.58H23V25.76H37.13Z"/><path class="cls-1" d="M141.86,33.22C150,33.22,154,42.65,154,52.08c0,9.64-3.19,21-12.69,21-7.68,0-13.13-7.78-13.13-19.29C128.2,41.22,132.9,33.22,141.86,33.22ZM128.2,25.76H114V108H128.2V73.78c4,4.83,9.5,8.11,16,8.11,15.27,0,24.87-15.45,24.87-29.92,0-12.06-6.82-27.52-23.58-27.52a21.12,21.12,0,0,0-17.07,8.87h-.22Z"/><path class="cls-1" d="M189.41,46.59c-.11-7.33,3.51-14,11.63-14,7,0,9.92,5.7,9.38,14Zm34.36,7.89c1.06-16.33-5.88-30-22.52-30C186,24.45,174,35.19,174,52.08c0,18.09,12.05,29.81,28.17,29.81a41.37,41.37,0,0,0,20.91-6.14l-4.06-7.67a26.09,26.09,0,0,1-14.29,4.39c-8.86,0-15.9-7.68-15.57-18Z"/><path class="cls-1" d="M244.71,35.41h.21l2.87-4.27c1.71-2.31,4.81-6.69,9.18-6.69,3.2,0,6.61,1.76,9.61,4.93l-5.33,10.09a12.68,12.68,0,0,0-6.73-1.87c-4.9,0-9.71,4.06-9.71,15.9V80.58H230.62V25.76h14.09Z"/><path class="cls-1" d="M285.31,25.76V80.58H271.12V25.76ZM269.74,9.33A8.47,8.47,0,0,1,278,.88a8.81,8.81,0,0,1,8.75,8.45c0,4.71-3.31,9.2-8.54,9.2C273.15,18.53,269.74,14,269.74,9.33Z"/><path class="cls-1" d="M323.85,48.79c1.07,16.1-6.29,23.35-11.94,23.35-3.42,0-6.41-3.29-6.41-8.12,0-6.24,3.52-10.41,10.46-12.61Zm-.21,23.78c0,3,.32,6.14,1.38,8h15.05c-1.71-3.84-2.24-9-2.24-13.38V44.84c0-17.1-12.05-20.39-21.87-20.39a29.72,29.72,0,0,0-20.49,7.46l4.58,6.9a20.23,20.23,0,0,1,14.1-5.59,9.69,9.69,0,0,1,9.7,8.22l-12.59,3.84c-12.38,3.61-19.74,9.53-19.74,20,0,10.08,6.93,16.66,15.26,16.66,4.91,0,9.72-3.39,13.66-6.58Z"/><path class="cls-1" d="M346.69,80.58V0h14.18V80.58Z"/><path class="cls-1" d="M454.53,17.76c-3.64-2-9.72-4.27-15.49-4.27-15.36,0-26.45,11.07-26.45,28.5,0,18.2,12.28,28.94,26.88,28.94a31.72,31.72,0,0,0,15.06-3.84l4.16,9.54a42.61,42.61,0,0,1-19.85,5.26c-25.94,0-42.26-17.54-42.26-40.12,0-20.94,16.23-39.25,42.46-39.25a40.33,40.33,0,0,1,20.17,5.93Z"/><path class="cls-1" d="M486.84,73.78c-10.14,0-12.9-11.62-12.9-21.27,0-9.09,3.19-19.95,12.9-19.95,9.93,0,13,10.86,13,19.95C499.86,62.16,497.19,73.78,486.84,73.78Zm0,8.11c16.77,0,28.06-12.38,28.06-29.38,0-17.76-13.65-28.06-28.06-28.06s-27.95,10.3-27.95,28.06C458.89,69.51,470.2,81.89,486.84,81.89Z"/><path class="cls-1" d="M521,80.58V0h14.2V80.58Z"/><path class="cls-1" d="M544.16,80.58V0h14.19V80.58Z"/><path class="cls-1" d="M579.62,46.59c-.12-7.33,3.51-14,11.62-14,7,0,9.92,5.7,9.4,14ZM614,54.48c1.07-16.33-5.86-30-22.51-30-15.26,0-27.22,10.74-27.22,27.63,0,18.09,12.06,29.81,28.18,29.81a41.46,41.46,0,0,0,20.92-6.14l-4.06-7.67A26.15,26.15,0,0,1,595,72.47c-8.85,0-15.91-7.68-15.58-18Z"/><path class="cls-1" d="M695.51,46.59c-.1-7.33,3.52-14,11.64-14,7,0,9.92,5.7,9.39,14Zm34.36,7.89c1.06-16.33-5.86-30-22.51-30-15.26,0-27.21,10.74-27.21,27.63,0,18.09,12.05,29.81,28.17,29.81a41.34,41.34,0,0,0,20.91-6.14l-4.05-7.67a26.15,26.15,0,0,1-14.3,4.39c-8.86,0-15.89-7.68-15.58-18Z"/><path class="cls-1" d="M647.15,33.22c8.54,0,12.9,8.88,12.9,18.42,0,11-4,21.48-13.55,21.48-8.21,0-12.26-10.3-12.26-20.94S638,33.22,647.15,33.22Zm27.1-7.46h-14.2v6.69h-.2c-3-4.93-9.4-8-15.91-8-14.51,0-24.75,13.81-24.75,28.06,0,17.54,9.28,29.38,23.48,29.38,8.11,0,13.65-4.6,17.18-9.21h.2v7.24c0,12.71-7.25,18.63-16.65,18.63-7.25,0-13.33-1.42-18.55-4.71l-2.78,9A49.77,49.77,0,0,0,644.48,108c15.9,0,29.77-8,29.77-32.34Z"/><path class="cls-1" d="M0,113.47H15.16v66.42h31.9V190.2H0Z"/><path class="cls-1" d="M130.32,141.86a26.43,26.43,0,0,1,19.2-7.79c13.14,0,19.43,7,19.43,20.83v35.3H154.69V156.55c0-7.67-3.48-12.72-11.23-12.72-7.31,0-13,4.71-13,13.7V190.2H116.17V135.39h14.15Z"/><path class="cls-1" d="M205.89,142.85c9,0,13.59,8.88,13.59,18.41,0,11-4.26,21.48-14.27,21.48-8.64,0-12.91-10.3-12.91-20.93S196.24,142.85,205.89,142.85Zm13.59,47.35h14.26V109.63H219.48v32.12h-.23c-3.37-4.83-9.88-7.68-17.18-7.68-15,0-25.6,13.82-25.6,28.07,0,17.53,9.76,29.37,24.48,29.37,8.76,0,14.6-4.6,18.3-9.21h.23Z"/><path class="cls-1" d="M270.8,183.4c-10.66,0-13.59-11.62-13.59-21.26,0-9.1,3.36-19.95,13.59-19.95,10.45,0,13.7,10.85,13.7,19.95C284.5,171.78,281.7,183.4,270.8,183.4Zm0,8.11c17.63,0,29.53-12.39,29.53-29.37,0-17.76-14.37-28.07-29.53-28.07s-29.42,10.31-29.42,28.07C241.38,179.12,253.28,191.51,270.8,191.51Z"/><path class="cls-1" d="M322.24,141.86a26.42,26.42,0,0,1,19.2-7.79c13.14,0,19.43,7,19.43,20.83v35.3H346.61V156.55c0-7.67-3.48-12.72-11.24-12.72-7.29,0-13,4.71-13,13.7V190.2H308.09V135.39h14.15Z"/><path class="cls-1" d="M78.64,183.4c-10.68,0-13.59-11.62-13.59-21.26,0-9.1,3.37-19.95,13.59-19.95,10.45,0,13.7,10.85,13.7,19.95C92.34,171.78,89.53,183.4,78.64,183.4Zm0,8.11c17.63,0,29.54-12.39,29.54-29.37,0-17.76-14.38-28.07-29.54-28.07s-29.42,10.31-29.42,28.07C49.22,179.12,61.12,191.51,78.64,191.51Z"/></g></g></svg>