<svg xmlns="http://www.w3.org/2000/svg" viewBox="0 0 84 95.2"><defs><style>.cls-1{fill:#fff;}</style></defs><title>iv-logo-v4-small</title><g id="Layer_2" data-name="Layer 2"><g id="Layer_1-2" data-name="Layer 1"><path class="cls-1" d="M28,56l4.2-8.4,3.64,7.28A27.92,27.92,0,0,1,28,56Z"/><path class="cls-1" d="M32.2,47.6,28,39.2H2.34a28,28,0,0,1,48.06-28Z"/><polygon class="cls-1" points="36.4 39.2 32.2 47.6 28 39.2 36.4 39.2"/><path class="cls-1" d="M56,56H36.4L56,95.2H0v-56H2.34A28,28,0,0,0,28,56l4.2-8.4,3.64,7.28A28,28,0,0,0,53.66,39.2H56Z"/><path class="cls-1" d="M75.6,39.2H56V56H28l4.2-8.4,3.64,7.28A28,28,0,0,0,50.4,11.2L56,0Z"/><polygon class="cls-1" points="84 56 75.6 56 79.8 47.6 84 56"/><polygon class="cls-1" points="36.4 39.2 32.2 47.6 28 39.2 36.4 39.2"/><path class="cls-1" d="M56,39.2V56H36.4l-.56-1.12A28,28,0,0,0,53.66,39.2Z"/><polygon class="cls-1" points="56 56 75.6 56 56 95.2 56 56"/><polygon class="cls-1" points="84 39.2 79.8 47.6 75.6 39.2 84 39.2"/></g></g></svg>