<svg xmlns="http://www.w3.org/2000/svg" viewBox="0 0 214.17 68.48"><defs><style>.cls-1{fill:#fff;}</style></defs><title>Asset 1</title><g id="Layer_2" data-name="Layer 2"><g id="Layer_1-2" data-name="Layer 1"><path class="cls-1" d="M48.53,29.43V3.93h4.94V29.43Z"/><path class="cls-1" d="M82.57,15.3V29.43H77.82V16c0-2.44-1-3.14-2.16-3.14-1.64,0-2.64,1.14-3.72,3V29.43H67.19V16c0-2.44-1-3.14-2.16-3.14-1.67,0-2.68,1.14-3.75,3V29.43H56.52V9.91h4.13L61,12.46a6.68,6.68,0,0,1,5.69-3.1,4.79,4.79,0,0,1,4.76,3.28,7,7,0,0,1,5.91-3.28C80.49,9.36,82.57,11.61,82.57,15.3Z"/><path class="cls-1" d="M103,19.61c0,6-2.79,10.37-7.77,10.37a6.24,6.24,0,0,1-4.94-2.14V37l-4.76.52V9.91h4.16l.26,2.4a7.17,7.17,0,0,1,5.69-3C100.82,9.36,103,13.38,103,19.61Zm-5,0c0-4.94-1.34-6.75-3.79-6.75a4.87,4.87,0,0,0-3.94,2.66v8.78a4.17,4.17,0,0,0,3.61,2C96.47,26.37,98,24.37,98,19.65Z"/><path class="cls-1" d="M122.71,21.13H110.37c.33,4,2.23,5.28,4.83,5.28a8.21,8.21,0,0,0,4.91-1.73l2,2.69A11.36,11.36,0,0,1,114.8,30c-6.1,0-9.37-4-9.37-10.18,0-5.94,3.16-10.44,8.73-10.44s8.66,3.69,8.66,9.85C122.82,19.84,122.75,20.61,122.71,21.13Zm-4.61-3.28c0-3.21-1.15-5.13-3.83-5.13-2.23,0-3.64,1.48-3.9,5.35h7.73Z"/><path class="cls-1" d="M137.39,9.65l-.82,4.58a6.66,6.66,0,0,0-1.75-.22c-2.38,0-3.61,1.73-4.35,5v10.4h-4.76V9.91h4.13l.45,3.84c.93-2.8,2.82-4.35,5.13-4.35A6.87,6.87,0,0,1,137.39,9.65Z"/><path class="cls-1" d="M140.37,29.43V9.91h4.76V29.43Zm5.25-26.56A2.89,2.89,0,1,1,142.73,0,2.88,2.88,0,0,1,145.61,2.87Z"/><path class="cls-1" d="M165.38,26.77l-1,3.14c-2.16-.18-3.57-1-4.35-2.84A6.71,6.71,0,0,1,154.16,30c-3.94,0-6.36-2.47-6.36-6,0-4.24,3.23-6.53,9-6.53h2.45V16.33c0-2.55-1.15-3.39-3.68-3.39a17.66,17.66,0,0,0-5.2,1l-1.12-3.21a20.42,20.42,0,0,1,7.14-1.4c5.24,0,7.55,2.4,7.55,6.71v8.19C163.89,25.85,164.41,26.4,165.38,26.77Zm-6.17-2.62V20.2h-2c-3.09,0-4.61,1.11-4.61,3.39,0,1.88,1,3,2.79,3A4.21,4.21,0,0,0,159.21,24.15Z"/><path class="cls-1" d="M173.48,26.18A3.72,3.72,0,0,0,174.6,26l1,3.32a8.9,8.9,0,0,1-3.38.66c-2.94,0-4.61-1.73-4.61-5V2.09l4.76-.52v23.1C172.37,25.74,172.7,26.18,173.48,26.18Z"/><path class="cls-1" d="M7.84,67.92,0,42.43H5.28L10.85,63.6l5.43-21.18h5L13.68,67.92Z"/><path class="cls-1" d="M23.22,67.92V48.4H28V67.92ZM28,44.24H23.22V39.49H28Z"/><path class="cls-1" d="M45.57,50.17,43.71,53a8.49,8.49,0,0,0-4.83-1.66c-2,0-3.08.77-3.08,2s.78,1.88,4.13,2.8c4,1.07,6.28,2.69,6.28,6.16,0,4.06-3.79,6.2-8.29,6.2a11.56,11.56,0,0,1-7.84-2.77L32.48,63a8.52,8.52,0,0,0,5.28,2c2.16,0,3.53-.92,3.53-2.29,0-1.7-.78-2.21-4.46-3.25-4.05-1.11-5.84-3-5.84-5.9,0-3.25,3-5.68,7.58-5.68A11.11,11.11,0,0,1,45.57,50.17Z"/><path class="cls-1" d="M60.35,67.92l-.26-2.73a6.67,6.67,0,0,1-6,3.28c-3.57,0-5.5-2.29-5.5-6.05v-14h4.76V61.83c0,2.29.78,3.06,2.42,3.06s2.94-1.07,4-2.77V48.4h4.76V67.92Z"/><path class="cls-1" d="M83.95,65.27l-1,3.14c-2.16-.18-3.57-1-4.35-2.84a6.71,6.71,0,0,1-5.87,2.91c-3.94,0-6.36-2.47-6.36-6,0-4.24,3.23-6.53,9-6.53h2.45V54.82c0-2.55-1.15-3.39-3.68-3.39a17.66,17.66,0,0,0-5.2,1l-1.12-3.21a20.42,20.42,0,0,1,7.14-1.4c5.24,0,7.55,2.4,7.55,6.71v8.19C82.46,64.34,83,64.9,83.95,65.27Zm-6.17-2.62V58.7h-2c-3.09,0-4.61,1.11-4.61,3.39,0,1.88,1,3,2.79,3A4.21,4.21,0,0,0,77.78,62.65Z"/><path class="cls-1" d="M91.39,64.67a3.72,3.72,0,0,0,1.12-.18l1,3.32a8.9,8.9,0,0,1-3.38.66c-2.94,0-4.61-1.73-4.61-5V40.58l4.76-.52v23.1C90.27,64.23,90.61,64.67,91.39,64.67Z"/><path class="cls-1" d="M95.59,67.92V48.4h4.76V67.92ZM98,37.72l3.79,6.52H94.16Z"/><path class="cls-1" d="M117.94,50.17,116.08,53a8.49,8.49,0,0,0-4.83-1.66c-2,0-3.08.77-3.08,2s.78,1.88,4.13,2.8c4,1.07,6.28,2.69,6.28,6.16,0,4.06-3.79,6.2-8.29,6.2a11.56,11.56,0,0,1-7.84-2.77L104.85,63a8.52,8.52,0,0,0,5.28,2c2.16,0,3.53-.92,3.53-2.29,0-1.7-.78-2.21-4.46-3.25-4.05-1.11-5.84-3-5.84-5.9,0-3.25,3-5.68,7.58-5.68A11.11,11.11,0,0,1,117.94,50.17Z"/><path class="cls-1" d="M137.64,65.27l-1,3.14c-2.16-.18-3.57-1-4.35-2.84a6.71,6.71,0,0,1-5.87,2.91c-3.94,0-6.36-2.47-6.36-6,0-4.24,3.23-6.53,9-6.53h2.45V54.82c0-2.55-1.15-3.39-3.68-3.39a17.66,17.66,0,0,0-5.2,1l-1.12-3.21a20.42,20.42,0,0,1,7.14-1.4c5.24,0,7.55,2.4,7.55,6.71v8.19C136.16,64.34,136.68,64.9,137.64,65.27Zm-6.17-2.62V58.7h-2c-3.09,0-4.61,1.11-4.61,3.39,0,1.88,1,3,2.79,3A4.21,4.21,0,0,0,131.47,62.65Z"/><path class="cls-1" d="M146.29,68.48c-3.87,0-5.91-2.21-5.91-6.38V51.8H137.3V48.4h3.08V44.09l4.76-.55V48.4h4.57l-.48,3.39h-4.09V62c0,1.92.63,2.69,2.08,2.69a4.43,4.43,0,0,0,2.34-.74L151.23,67A8.64,8.64,0,0,1,146.29,68.48Z"/><path class="cls-1" d="M152.92,67.92V48.4h4.76V67.92Zm-1.47-30.2H159l-3.79,6.52Z"/><path class="cls-1" d="M178.27,58.14c0,6.16-3.46,10.33-9.26,10.33s-9.26-3.91-9.26-10.33c0-6.12,3.46-10.29,9.29-10.29S178.27,51.76,178.27,58.14Zm-13.49,0c0,4.69,1.45,6.75,4.24,6.75s4.24-2.1,4.24-6.75-1.45-6.71-4.2-6.71S164.78,53.53,164.78,58.14Z"/><path class="cls-1" d="M196.4,53.79V67.92h-4.76V54.53c0-2.44-.93-3.14-2.42-3.14-1.71,0-3,1.14-4.13,3V67.92h-4.76V48.4h4.13l.37,2.55a7.35,7.35,0,0,1,6-3.1C194.36,47.85,196.4,50.06,196.4,53.79Z"/><path class="cls-1" d="M213.54,50.17,211.68,53a8.49,8.49,0,0,0-4.83-1.66c-2,0-3.08.77-3.08,2s.78,1.88,4.13,2.8c4,1.07,6.28,2.69,6.28,6.16,0,4.06-3.79,6.2-8.29,6.2A11.56,11.56,0,0,1,198,65.71L200.45,63a8.52,8.52,0,0,0,5.28,2c2.16,0,3.53-.92,3.53-2.29,0-1.7-.78-2.21-4.46-3.25-4.05-1.11-5.84-3-5.84-5.9,0-3.25,3-5.68,7.58-5.68A11.11,11.11,0,0,1,213.54,50.17Z"/></g></g></svg>